<?xml version="1.0" encoding="UTF-8" standalone="no"?>
<svg xmlns="http://www.w3.org/2000/svg" width="50" height="50" viewBox="0 0 50 50">
    <path style="text-indent:0;text-align:start;line-height:normal;text-transform:none;block-progression:tb;-inkscape-font-specification:Bitstream Vera Sans" d="M 0.875 2 A 1.0001 1.0001 0 0 0 0 3 L 0 41 A 1.0001 1.0001 0 0 0 0.5625 41.90625 L 12.5625 47.90625 A 1.0001 1.0001 0 0 0 13.4375 47.90625 L 25.03125 42.09375 L 37.59375 47.90625 A 1.0001 1.0001 0 0 0 38.46875 47.875 L 49.46875 41.875 A 1.0001 1.0001 0 0 0 50 41 L 50 3 A 1.0001 1.0001 0 0 0 48.53125 2.125 L 37.96875 7.875 L 25.40625 2.09375 A 1.0001 1.0001 0 0 0 24.5625 2.09375 L 13 7.875 L 1.4375 2.09375 A 1.0001 1.0001 0 0 0 0.875 2 z M 26 4.53125 L 37 9.625 L 37 45.4375 L 26 40.375 L 26 4.53125 z M 2 4.625 L 12 9.625 L 12 45.375 L 2 40.375 L 2 4.625 z M 24 4.625 L 24 40.375 L 14 45.375 L 14 9.625 L 24 4.625 z M 48 4.6875 L 48 40.40625 L 39 45.3125 L 39 9.59375 L 48 4.6875 z" color="#000" overflow="visible" enable-background="accumulate" font-family="Bitstream Vera Sans"></path>
</svg>