<?xml version="1.0" encoding="UTF-8" standalone="no"?>
<svg width="502" height="502" xmlns="http://www.w3.org/2000/svg">
<g>
	<g>
		<g>
			<path d="M120.995,255.996h248.853c54.933,0,99.52-43.093,99.52-96s-44.693-96-99.52-96H127.075
				c-6.08-35.84-40.853-59.627-76.693-51.84C18.275,19.089-3.485,49.809,0.462,82.343c4.48,36.48,38.4,61.44,74.24,55.467
				c26.88-4.587,47.893-25.6,52.48-52.48h242.773c43.093,0,78.187,33.493,78.187,74.667c0,41.173-35.093,74.667-78.187,74.667
				h-248.96c-54.933,0-99.627,43.093-99.627,96s44.693,96,99.52,96h173.333l-45.653,45.76c-4.267,4.053-4.373,10.88-0.213,15.04
				c4.16,4.16,10.88,4.373,15.04,0.213c0.107-0.107,0.213-0.213,0.213-0.213l63.893-63.893c4.16-4.16,4.16-10.88,0-15.04l-63.893-64
				c-4.267-4.053-10.987-3.947-15.04,0.213c-3.947,4.16-3.947,10.667,0,14.827l45.76,45.76H120.995
				c-43.2,0-78.293-33.493-78.293-74.667S77.795,255.996,120.995,255.996z M64.035,117.223c-23.573,0-42.667-19.093-42.667-42.667
				c0-23.573,19.093-42.667,42.667-42.667c23.573,0,42.667,19.093,42.667,42.667C106.702,98.129,87.608,117.223,64.035,117.223z"/>
			<path d="M437.368,351.889c-35.307,0-64,28.693-64,64s28.693,64,64,64s64-28.693,64-64S472.782,351.996,437.368,351.889z
				 M437.368,458.556c-23.573,0-42.667-19.093-42.667-42.667s19.093-42.667,42.667-42.667s42.667,19.093,42.667,42.667
				S460.942,458.556,437.368,458.556z"/>
		</g>
	</g>
</g>
</svg>
